<mxfile host="app.diagrams.net" agent="Mozilla/5.0 (Windows NT 10.0; Win64; x64) AppleWebKit/537.36 (KHTML, like Gecko) Chrome/134.0.0.0 Safari/537.36" version="26.1.1">
  <diagram name="Page-1" id="cmj9IO6pBJdwyZ0zPFTH">
    <mxGraphModel grid="1" page="1" gridSize="10" guides="1" tooltips="1" connect="1" arrows="1" fold="1" pageScale="1" pageWidth="1920" pageHeight="1200" math="0" shadow="0">
      <root>
        <mxCell id="0" />
        <mxCell id="1" parent="0" />
        <mxCell id="0PJiMp5PTsZEE7j22kR3-1" value="&lt;font style=&quot;font-size: 35px;&quot;&gt;Header Bar&lt;/font&gt;" style="rounded=0;whiteSpace=wrap;html=1;fillColor=#f5f5f5;fontColor=#333333;strokeColor=#666666;spacing=20;" vertex="1" parent="1">
          <mxGeometry width="1920" height="80" as="geometry" />
        </mxCell>
        <mxCell id="0PJiMp5PTsZEE7j22kR3-3" value="Scrollable Container" style="rounded=1;whiteSpace=wrap;html=1;fillColor=#f5f5f5;strokeColor=#666666;fontColor=#333333;labelPosition=center;verticalLabelPosition=top;align=center;verticalAlign=bottom;fontSize=25;" vertex="1" parent="1">
          <mxGeometry x="40" y="120" width="310" height="1000" as="geometry" />
        </mxCell>
        <mxCell id="0PJiMp5PTsZEE7j22kR3-4" value="Holding Container" style="rounded=1;whiteSpace=wrap;html=1;fillColor=#f5f5f5;fontColor=#333333;strokeColor=#666666;fontSize=35;labelPosition=center;verticalLabelPosition=top;align=center;verticalAlign=bottom;" vertex="1" parent="1">
          <mxGeometry x="440" y="260" width="560" height="680" as="geometry" />
        </mxCell>
        <mxCell id="0PJiMp5PTsZEE7j22kR3-5" value="Holding Container" style="rounded=1;whiteSpace=wrap;html=1;fillColor=#f5f5f5;fontColor=#333333;strokeColor=#666666;fontSize=35;labelPosition=center;verticalLabelPosition=top;align=center;verticalAlign=bottom;" vertex="1" parent="1">
          <mxGeometry x="1240" y="260" width="560" height="680" as="geometry" />
        </mxCell>
        <mxCell id="0PJiMp5PTsZEE7j22kR3-6" value="Battle Button" style="ellipse;whiteSpace=wrap;html=1;fillColor=#f8cecc;strokeColor=#b85450;fontSize=30;" vertex="1" parent="1">
          <mxGeometry x="1040" y="560" width="160" height="80" as="geometry" />
        </mxCell>
        <mxCell id="0PJiMp5PTsZEE7j22kR3-8" value="&lt;font style=&quot;font-size: 25px;&quot;&gt;Wins/Losses Button&lt;/font&gt;" style="rounded=1;whiteSpace=wrap;html=1;fillColor=#dae8fc;strokeColor=#6c8ebf;fontSize=30;" vertex="1" parent="1">
          <mxGeometry x="97.5" y="160" width="195" height="60" as="geometry" />
        </mxCell>
        <mxCell id="0PJiMp5PTsZEE7j22kR3-10" value="Player Selection Container" style="rounded=0;whiteSpace=wrap;html=1;labelPosition=center;verticalLabelPosition=top;align=center;verticalAlign=bottom;fontSize=25;fillColor=#fff2cc;strokeColor=#d6b656;" vertex="1" parent="1">
          <mxGeometry x="535" y="325" width="370" height="550" as="geometry" />
        </mxCell>
        <mxCell id="0PJiMp5PTsZEE7j22kR3-11" value="Computer Container" style="rounded=0;whiteSpace=wrap;html=1;fontSize=25;labelPosition=center;verticalLabelPosition=top;align=center;verticalAlign=bottom;fillColor=#d5e8d4;strokeColor=#82b366;" vertex="1" parent="1">
          <mxGeometry x="1335" y="325" width="370" height="95" as="geometry" />
        </mxCell>
        <mxCell id="0PJiMp5PTsZEE7j22kR3-13" value="Difficulty Selector" style="rounded=0;whiteSpace=wrap;html=1;fontSize=20;fillColor=#dae8fc;strokeColor=#6c8ebf;" vertex="1" parent="1">
          <mxGeometry x="1680" y="10" width="230" height="60" as="geometry" />
        </mxCell>
        <mxCell id="0PJiMp5PTsZEE7j22kR3-14" value="Setup Battle Button" style="rounded=0;whiteSpace=wrap;html=1;fontSize=20;fillColor=#dae8fc;strokeColor=#6c8ebf;" vertex="1" parent="1">
          <mxGeometry x="10" y="10" width="120" height="60" as="geometry" />
        </mxCell>
        <mxCell id="0PJiMp5PTsZEE7j22kR3-15" value="Footer Bar" style="rounded=0;whiteSpace=wrap;html=1;fillColor=#f5f5f5;fontColor=#333333;strokeColor=#666666;fontSize=20;" vertex="1" parent="1">
          <mxGeometry y="1160" width="1920" height="40" as="geometry" />
        </mxCell>
        <mxCell id="0PJiMp5PTsZEE7j22kR3-17" value="Battle Winner Display Box" style="rounded=1;whiteSpace=wrap;html=1;fillColor=#f5f5f5;fontColor=#333333;strokeColor=#666666;fontSize=35;" vertex="1" parent="1">
          <mxGeometry x="480" y="1000" width="1280" height="120" as="geometry" />
        </mxCell>
      </root>
    </mxGraphModel>
  </diagram>
</mxfile>
